<?xml version="1.0" standalone="no"?><!DOCTYPE svg PUBLIC "-//W3C//DTD SVG 1.1//EN" "http://www.w3.org/Graphics/SVG/1.1/DTD/svg11.dtd"><svg t="1575619805894" class="icon" viewBox="0 0 1251 1024" version="1.1" xmlns="http://www.w3.org/2000/svg" p-id="3466" xmlns:xlink="http://www.w3.org/1999/xlink" width="244.3359375" height="200"><defs><style type="text/css"></style></defs><path d="M1166.222222 341.333333H910.222222V113.777778h170.666667a56.888889 56.888889 0 0 0 0-113.777778H170.666667a56.888889 56.888889 0 0 0 0 113.777778h170.666666v227.555555H85.333333A85.333333 85.333333 0 0 0 0 426.666667v512A85.333333 85.333333 0 0 0 85.333333 1024h1080.888889a85.333333 85.333333 0 0 0 85.333334-85.333333v-512A85.333333 85.333333 0 0 0 1166.222222 341.333333zM455.111111 113.777778h341.333333v227.555555H455.111111V113.777778z m682.666667 796.444444H113.777778V455.111111h1024v455.111111zM331.662222 803.271111a124.871111 124.871111 0 0 0 51.2-9.102222l-5.688889-26.453333a97.28 97.28 0 0 1-39.253333 7.68 71.850667 71.850667 0 0 1-72.760889-83.285334 73.557333 73.557333 0 0 1 73.329778-84.992 89.6 89.6 0 0 1 38.115555 7.964445l7.111112-27.022223a105.358222 105.358222 0 0 0-46.307556-8.533333 103.822222 103.822222 0 0 0-106.894222 114.289778A97.962667 97.962667 0 0 0 331.662222 803.271111z m200.760889-31.004444H448.568889v-189.610667h-32.995556v217.486222h116.849778v-27.875555z m66.332445-36.124445h66.503111l19.626666 64h34.702223l-66.56-217.486222h-40.334223l-66.503111 217.486222h34.076445z m22.755555-82.432c3.697778-13.368889 7.111111-29.297778 10.24-42.666666h0.568889c3.128889 13.368889 6.826667 28.444444 10.808889 42.951111l17.066667 56.888889h-55.978667z m172.657778 121.685334a95.061333 95.061333 0 0 1-47.217778-12.8l-7.395555 27.591111a106.040889 106.040889 0 0 0 52.622222 13.084444A65.877333 65.877333 0 0 0 868.067556 739.555556a68.835556 68.835556 0 0 0-51.712-64.227556 46.705778 46.705778 0 0 1-39.822223-39.822222 31.459556 31.459556 0 0 1 36.693334-28.956445 81.123556 81.123556 0 0 1 38.627555 9.614223l7.964445-27.249778a101.148444 101.148444 0 0 0-45.511111-9.955556 63.089778 63.089778 0 0 0-70.826667 60.245334 70.826667 70.826667 0 0 0 54.328889 62.293333 45.169778 45.169778 0 0 1 36.977778 40.618667 34.133333 34.133333 0 0 1-40.903112 33.28z m153.315555 0a95.061333 95.061333 0 0 1-47.217777-12.8l-7.395556 27.591111a105.870222 105.870222 0 0 0 52.622222 13.084444A65.877333 65.877333 0 0 0 1021.383111 739.555556a68.835556 68.835556 0 0 0-51.712-64.227556 46.705778 46.705778 0 0 1-39.822222-39.822222 31.459556 31.459556 0 0 1 36.693333-28.956445 80.725333 80.725333 0 0 1 38.627556 9.614223l7.964444-27.249778a100.977778 100.977778 0 0 0-45.511111-9.955556 63.089778 63.089778 0 0 0-70.826667 60.245334 70.826667 70.826667 0 0 0 54.328889 62.293333 45.056 45.056 0 0 1 36.977778 40.618667 34.133333 34.133333 0 0 1-40.903111 33.28z" p-id="3467"></path></svg>